<svg xmlns="http://www.w3.org/2000/svg" viewBox="0 0 800 600" width="800" height="600" role="img">
  <defs>
    <linearGradient id="bg" x1="0" y1="0" x2="1" y2="1">
      <stop offset="0%" stop-color="hsl(250 55% 16%)"/>
      <stop offset="100%" stop-color="hsl(270 65% 8%)"/>
    </linearGradient>
    <radialGradient id="glow" cx="0.3" cy="0.5" r="0.7">
      <stop offset="0%" stop-color="hsl(250 95% 60%)" stop-opacity="0.35"/>
      <stop offset="100%" stop-color="hsl(250 95% 60%)" stop-opacity="0"/>
    </radialGradient>
  </defs>
  <rect width="800" height="600" fill="url(#bg)"/>
  <rect width="800" height="600" fill="url(#glow)"/>
  <circle cx="100" cy="130" r="9" fill="hsl(250 85% 72%)" opacity="0.55"/><circle cx="100" cy="205" r="9" fill="hsl(250 85% 72%)" opacity="0.55"/><circle cx="100" cy="280" r="9" fill="hsl(250 85% 72%)" opacity="0.55"/><circle cx="100" cy="355" r="9" fill="hsl(250 85% 72%)" opacity="0.55"/><circle cx="100" cy="430" r="9" fill="hsl(250 85% 72%)" opacity="0.55"/><circle cx="175" cy="130" r="9" fill="hsl(250 85% 72%)" opacity="0.55"/><circle cx="175" cy="205" r="9" fill="hsl(250 85% 72%)" opacity="0.55"/><circle cx="175" cy="280" r="9" fill="hsl(250 85% 72%)" opacity="0.55"/><circle cx="175" cy="355" r="9" fill="hsl(250 85% 72%)" opacity="0.55"/><circle cx="175" cy="430" r="9" fill="hsl(250 85% 72%)" opacity="0.55"/><circle cx="250" cy="130" r="9" fill="hsl(250 85% 72%)" opacity="0.55"/><circle cx="250" cy="205" r="9" fill="hsl(250 85% 72%)" opacity="0.55"/><circle cx="250" cy="280" r="9" fill="hsl(250 85% 72%)" opacity="0.55"/><circle cx="250" cy="355" r="9" fill="hsl(250 85% 72%)" opacity="0.55"/><circle cx="250" cy="430" r="9" fill="hsl(250 85% 72%)" opacity="0.55"/><circle cx="325" cy="130" r="9" fill="hsl(250 85% 72%)" opacity="0.55"/><circle cx="325" cy="205" r="9" fill="hsl(250 85% 72%)" opacity="0.55"/><circle cx="325" cy="280" r="9" fill="hsl(250 85% 72%)" opacity="0.55"/><circle cx="325" cy="355" r="9" fill="hsl(250 85% 72%)" opacity="0.55"/><circle cx="325" cy="430" r="9" fill="hsl(250 85% 72%)" opacity="0.55"/><circle cx="400" cy="130" r="9" fill="hsl(250 85% 72%)" opacity="0.55"/><circle cx="400" cy="205" r="9" fill="hsl(250 85% 72%)" opacity="0.55"/><circle cx="400" cy="280" r="9" fill="hsl(250 85% 72%)" opacity="0.55"/><circle cx="400" cy="355" r="9" fill="hsl(250 85% 72%)" opacity="0.55"/><circle cx="400" cy="430" r="9" fill="hsl(250 85% 72%)" opacity="0.55"/><circle cx="475" cy="130" r="9" fill="hsl(250 85% 72%)" opacity="0.55"/><circle cx="475" cy="205" r="9" fill="hsl(250 85% 72%)" opacity="0.55"/><circle cx="475" cy="280" r="9" fill="hsl(250 85% 72%)" opacity="0.55"/><circle cx="475" cy="355" r="9" fill="hsl(250 85% 72%)" opacity="0.55"/><circle cx="475" cy="430" r="9" fill="hsl(250 85% 72%)" opacity="0.55"/><circle cx="550" cy="130" r="9" fill="hsl(250 85% 72%)" opacity="0.55"/><circle cx="550" cy="205" r="9" fill="hsl(250 85% 72%)" opacity="0.55"/><circle cx="550" cy="280" r="9" fill="hsl(250 85% 72%)" opacity="0.55"/><circle cx="550" cy="355" r="9" fill="hsl(250 85% 72%)" opacity="0.55"/><circle cx="550" cy="430" r="9" fill="hsl(250 85% 72%)" opacity="0.55"/><circle cx="625" cy="130" r="9" fill="hsl(250 85% 72%)" opacity="0.55"/><circle cx="625" cy="205" r="9" fill="hsl(250 85% 72%)" opacity="0.55"/><circle cx="625" cy="280" r="9" fill="hsl(250 85% 72%)" opacity="0.55"/><circle cx="625" cy="355" r="9" fill="hsl(250 85% 72%)" opacity="0.55"/><circle cx="625" cy="430" r="9" fill="hsl(250 85% 72%)" opacity="0.55"/><circle cx="700" cy="130" r="9" fill="hsl(250 85% 72%)" opacity="0.55"/><circle cx="700" cy="205" r="9" fill="hsl(250 85% 72%)" opacity="0.55"/><circle cx="700" cy="280" r="9" fill="hsl(250 85% 72%)" opacity="0.55"/><circle cx="700" cy="355" r="9" fill="hsl(250 85% 72%)" opacity="0.55"/><circle cx="700" cy="430" r="9" fill="hsl(250 85% 72%)" opacity="0.55"/><rect x="70" y="100" width="660" height="400" rx="18" fill="none" stroke="hsl(250 90% 78%)" stroke-width="3" opacity="0.5"/>
</svg>
